<?xml version="1.0" encoding="utf-8"?><svg xmlns="http://www.w3.org/2000/svg" xmlns:xlink="http://www.w3.org/1999/xlink" width="1440" height="815" preserveAspectRatio="xMidYMid" viewBox="0 0 1440 815" style="z-index:1;margin-right:-2px;display:block;background-color:rgb(235, 235, 235);animation-play-state:paused" ><g transform="translate(720,407.5) scale(1,1) translate(-720,-407.5)" style="transform:matrix(1, 0, 0, 1, 0, 0);animation-play-state:paused" ><g transform="translate(1118.2381262373478,98.59484495889996) scale(100)" opacity="0.4" style="transform:matrix(100, 0, 0, 100, 1118.24, 98.5948);opacity:0.4;animation-play-state:paused" ><path d="M4.888799999999999 0 C4.888799999999999 1.1591999999999998 5.075311076125778 1.591703351933078 4.495711076125778 2.5955999999999992 S3.448296648066921 3.6542249940213622 2.4444 4.233824994021362 S1.1592 5.191199999999999 3.1786932318668695e-16 5.191199999999999 S-1.4405033519330774 4.8134249940213625 -2.4443999999999986 4.233824994021363 S-3.9161110761257767 3.599496648066922 -4.495711076125777 2.5956000000000015 S-4.888799999999999 1.1592000000000005 -4.888799999999999 5.987053271671579e-16 S-5.075311076125778 -1.591703351933077 -4.495711076125779 -2.5955999999999984 S-3.4482966480669224 -3.654224994021361 -2.4444000000000017 -4.2338249940213615 S-1.1592000000000007 -5.191199999999999 -9.536079695600609e-16 -5.191199999999999 S1.4405033519330748 -4.813424994021364 2.4443999999999964 -4.233824994021365 S3.9161110761257754 -3.5994966480669226 4.495711076125776 -2.595600000000002 S4.888799999999999 -1.159200000000001 4.888799999999999 -1.1974106543343157e-15" fill="#ebebeb" stroke-width="0" transform="matrix(1,0,0,1,0,0)" style="transform:matrix(1, 0, 0, 1, 0, 0);animation-play-state:paused" ></path></g>
<g transform="translate(1197.8857514848175,36.8138139506799) scale(100)" opacity="0.4" style="transform:matrix(100, 0, 0, 100, 1197.89, 36.8138);opacity:0.4;animation-play-state:paused" ><path d="M5.866559999999999 0 C5.866559999999999 1.3910399999999996 6.090373291350932 1.910044022319694 5.394853291350933 3.1147199999999993 S4.1379559776803045 4.385069992825635 2.93328 5.080589992825635 S1.39104 6.229439999999999 3.814431878240244e-16 6.229439999999999 S-1.7286040223196928 5.776109992825635 -2.933279999999998 5.080589992825636 S-4.699333291350932 4.319395977680307 -5.394853291350932 3.114720000000002 S-5.866559999999999 1.3910400000000003 -5.866559999999999 7.184463926005896e-16 S-6.090373291350933 -1.9100440223196924 -5.394853291350934 -3.114719999999998 S-4.137955977680307 -4.385069992825634 -2.933280000000002 -5.080589992825634 S-1.3910400000000007 -6.229439999999999 -1.144329563472073e-15 -6.229439999999999 S1.7286040223196897 -5.776109992825637 2.9332799999999954 -5.0805899928256375 S4.699333291350931 -4.3193959776803075 5.394853291350931 -3.1147200000000024 S5.866559999999999 -1.391040000000001 5.866559999999999 -1.4368927852011791e-15" fill="#d1d1d1" stroke-width="0" transform="matrix(1,0,0,1,0,0)" style="transform:matrix(1, 0, 0, 1, 0, 0);animation-play-state:paused" ></path></g>
<g transform="translate(1389.0400520787446,-111.4606604690481) scale(100)" opacity="0.4" style="transform:matrix(100, 0, 0, 100, 1389.04, -111.461);opacity:0.4;animation-play-state:paused" ><path d="M8.213183999999998 0 C8.213183999999998 1.9474559999999994 8.526522607891305 2.6740616312475707 7.552794607891306 4.360607999999998 S5.793138368752427 6.139097989955889 4.106592 7.112825989955889 S1.9474559999999999 8.721215999999998 5.34020462953634e-16 8.721215999999998 S-2.4200456312475698 8.086553989955888 -4.106591999999997 7.11282598995589 S-6.579066607891304 6.0471543687524285 -7.552794607891304 4.360608000000002 S-8.213183999999998 1.9474560000000005 -8.213183999999998 1.0058249496408253e-15 S-8.526522607891305 -2.674061631247569 -7.552794607891307 -4.3606079999999965 S-5.793138368752429 -6.139097989955887 -4.106592000000003 -7.112825989955887 S-1.947456000000001 -8.721215999999998 -1.602061388860902e-15 -8.721215999999998 S2.4200456312475658 -8.08655398995589 4.106591999999994 -7.112825989955892 S6.579066607891303 -6.047154368752429 7.552794607891303 -4.360608000000003 S8.213183999999998 -1.9474560000000014 8.213183999999998 -2.0116498992816505e-15" fill="#b7b7b7" stroke-width="0" transform="matrix(1,0,0,1,0,0)" style="transform:matrix(1, 0, 0, 1, 0, 0);animation-play-state:paused" ></path></g></g></svg>