<?xml version="1.0" encoding="utf-8"?><svg xmlns="http://www.w3.org/2000/svg" xmlns:xlink="http://www.w3.org/1999/xlink" width="1540" height="400" preserveAspectRatio="xMidYMid" viewBox="0 0 1540 400" style="z-index:1;margin-right:-2px;display:block;animation-play-state:paused" ><g transform="translate(770,200) scale(1,1) translate(-770,-200)" style="transform:matrix(1, 0, 0, 1, 0, 0);animation-play-state:paused" ><defs style="animation-play-state:paused" ><linearGradient id="ldbk-photon-rqvknup33n-lg" x1="0" x2="0" y1="175" y2="400" gradientUnits="userSpaceOnUse" style="animation-play-state:paused" ><stop stop-color="#cecdc9" offset="0" style="animation-play-state:paused" ></stop>

    
<stop stop-color="#c5c3b7" offset="1" style="animation-play-state:paused" ></stop></linearGradient>

  
<mask id="ldbk-photon-rqvknup33n-mask" style="animation-play-state:paused" ><g style="animation-play-state:paused" ><path d="M-0.5 700 L-0.5 168.68393513104058 A15.5 15.5 0 0 0 31.5 168.68393513104058 L31.5 700" fill="#fff" transform="matrix(1,0,0,1,0,0)" style="transform:matrix(1, 0, 0, 1, 0, 0);animation-play-state:paused" ></path>
<path d="M-0.5 455.59977903428523 L-0.5 480.19955806857047 A15.5 15.5 0 0 0 31.5 480.19955806857047 L31.5 455.59977903428523 A15.5 15.5 0 0 0 -0.5 455.59977903428523" fill="#000" transform="matrix(1,0,0,1,0,0)" opacity="1" style="transform:matrix(1, 0, 0, 1, 0, 0);animation-play-state:paused" ></path>
<path d="M30.5 700 L30.5 120.25190219882757 A15.5 15.5 0 0 1 62.5 120.25190219882757 L62.5 700" fill="#fff" transform="matrix(1,0,0,1,0,-6.780295372009277)" style="transform:matrix(1, 0, 0, 1, 0, -6.7803);animation-play-state:paused" ></path>
<path d="M30.5 151.25190219882757 L30.5 162.62279749491498 A15.5 15.5 0 0 0 62.5 162.62279749491498 L62.5 151.25190219882757 A15.5 15.5 0 0 0 30.5 151.25190219882757" fill="#fff" transform="matrix(1,0,0,1,0,0)" opacity="1" style="transform:matrix(1, 0, 0, 1, 0, 0);animation-play-state:paused" ></path>
<path d="M61.5 700 L61.5 190.5962727538547 A15.5 15.5 0 0 0 93.5 190.5962727538547 L93.5 700" fill="#fff" transform="matrix(1,0,0,1,0,19.54817008972168)" style="transform:matrix(1, 0, 0, 1, 0, 19.5482);animation-play-state:paused" ></path>
<path d="M61.5 444.6754812908821 L61.5 458.3509625817642 A15.5 15.5 0 0 0 93.5 458.3509625817642 L93.5 444.6754812908821 A15.5 15.5 0 0 0 61.5 444.6754812908821" fill="#000" transform="matrix(1,0,0,1,0,-43.109840393066406)" opacity="1" style="transform:matrix(1, 0, 0, 1, 0, -43.1098);animation-play-state:paused" ></path>
<path d="M92.5 700 L92.5 152.55232313319533 A15.5 15.5 0 0 1 124.5 152.55232313319533 L124.5 700" fill="#fff" transform="matrix(1,0,0,1,0,-30.70952796936035)" style="transform:matrix(1, 0, 0, 1, 0, -30.7095);animation-play-state:paused" ></path>
<path d="M92.5 183.55232313319533 L92.5 212.50151961587966 A15.5 15.5 0 0 0 124.5 212.50151961587966 L124.5 183.55232313319533 A15.5 15.5 0 0 0 92.5 183.55232313319533" fill="#fff" transform="matrix(1,0,0,1,0,0)" opacity="0.672269" style="transform:matrix(1, 0, 0, 1, 0, 0);opacity:0.672269;animation-play-state:paused" ></path>
<path d="M123.5 700 L123.5 191.649592506395 A15.5 15.5 0 0 0 155.5 191.649592506395 L155.5 700" fill="#fff" transform="matrix(1,0,0,1,0,45.95957565307617)" style="transform:matrix(1, 0, 0, 1, 0, 45.9596);animation-play-state:paused" ></path>
<path d="M123.5 469.4397405421097 L123.5 507.8794810842194 A15.5 15.5 0 0 0 155.5 507.8794810842194 L155.5 469.4397405421097 A15.5 15.5 0 0 0 123.5 469.4397405421097" fill="#000" transform="matrix(1,0,0,1,0,-88.83971405029297)" opacity="1" style="transform:matrix(1, 0, 0, 1, 0, -88.8397);animation-play-state:paused" ></path>
<path d="M154.5 700 L154.5 157.37697599071126 A15.5 15.5 0 0 1 186.5 157.37697599071126 L186.5 700" fill="#fff" transform="matrix(1,0,0,1,0,-28.87744140625)" style="transform:matrix(1, 0, 0, 1, 0, -28.8774);animation-play-state:paused" ></path>
<path d="M154.5 188.37697599071126 L154.5 215.23549031618143 A15.5 15.5 0 0 0 186.5 215.23549031618143 L186.5 188.37697599071126 A15.5 15.5 0 0 0 154.5 188.37697599071126" fill="#fff" transform="matrix(1,0,0,1,0,0)" opacity="0.588235" style="transform:matrix(1, 0, 0, 1, 0, 0);opacity:0.588235;animation-play-state:paused" ></path>
<path d="M185.5 700 L185.5 163.65835994680774 A15.5 15.5 0 0 0 217.5 163.65835994680774 L217.5 700" fill="#fff" transform="matrix(1,0,0,1,0,27.74504852294922)" style="transform:matrix(1, 0, 0, 1, 0, 27.745);animation-play-state:paused" ></path>
<path d="M185.5 450.717668238234 L185.5 470.435336476468 A15.5 15.5 0 0 0 217.5 470.435336476468 L217.5 450.717668238234 A15.5 15.5 0 0 0 185.5 450.717668238234" fill="#000" transform="matrix(1,0,0,1,0,-334.6872253417969)" opacity="0.420168" style="transform:matrix(1, 0, 0, 1, 0, -334.687);opacity:0.420168;animation-play-state:paused" ></path>
<path d="M216.5 700 L216.5 139.70548029158545 A15.5 15.5 0 0 1 248.5 139.70548029158545 L248.5 700" fill="#fff" transform="matrix(1,0,0,1,0,-11.0250244140625)" style="transform:matrix(1, 0, 0, 1, 0, -11.025);animation-play-state:paused" ></path>
<path d="M216.5 170.70548029158545 L216.5 185.17190116568693 A15.5 15.5 0 0 0 248.5 185.17190116568693 L248.5 170.70548029158545 A15.5 15.5 0 0 0 216.5 170.70548029158545" fill="#fff" transform="matrix(1,0,0,1,0,0)" opacity="0.840336" style="transform:matrix(1, 0, 0, 1, 0, 0);opacity:0.840336;animation-play-state:paused" ></path>
<path d="M247.5 700 L247.5 170.52104636555313 A15.5 15.5 0 0 0 279.5 170.52104636555313 L279.5 700" fill="#fff" transform="matrix(1,0,0,1,0,0.6993865966796875)" style="transform:matrix(1, 0, 0, 1, 0, 0.699387);animation-play-state:paused" ></path>
<path d="M247.5 457.29637896341893 L247.5 483.59275792683786 A15.5 15.5 0 0 0 279.5 483.59275792683786 L279.5 457.29637896341893 A15.5 15.5 0 0 0 247.5 457.29637896341893" fill="#000" transform="matrix(1,0,0,1,0,-282.7496032714844)" opacity="0.0840336" style="transform:matrix(1, 0, 0, 1, 0, -282.75);opacity:0.0840336;animation-play-state:paused" ></path>
<path d="M278.5 700 L278.5 145.67607835127336 A15.5 15.5 0 0 1 310.5 145.67607835127336 L310.5 700" fill="#fff" transform="matrix(1,0,0,1,0,-45.596920013427734)" style="transform:matrix(1, 0, 0, 1, 0, -45.5969);animation-play-state:paused" ></path>
<path d="M278.5 176.67607835127336 L278.5 204.5701870365916 A15.5 15.5 0 0 0 310.5 204.5701870365916 L310.5 176.67607835127336 A15.5 15.5 0 0 0 278.5 176.67607835127336" fill="#fff" transform="matrix(1,0,0,1,0,0)" opacity="0.672269" style="transform:matrix(1, 0, 0, 1, 0, 0);opacity:0.672269;animation-play-state:paused" ></path>
<path d="M309.5 700 L309.5 167.71774964327216 A15.5 15.5 0 0 0 341.5 167.71774964327216 L341.5 700" fill="#fff" transform="matrix(1,0,0,1,0,14.0721435546875)" style="transform:matrix(1, 0, 0, 1, 0, 14.0721);animation-play-state:paused" ></path>
<path d="M309.5 454.5847697743506 L309.5 478.1695395487012 A15.5 15.5 0 0 0 341.5 478.1695395487012 L341.5 454.5847697743506 A15.5 15.5 0 0 0 309.5 454.5847697743506" fill="#000" transform="matrix(1,0,0,1,0,-271.081298828125)" opacity="0.336134" style="transform:matrix(1, 0, 0, 1, 0, -271.081);opacity:0.336134;animation-play-state:paused" ></path>
<path d="M340.5 700 L340.5 105.49377312991157 A15.5 15.5 0 0 1 372.5 105.49377312991157 L372.5 700" fill="#fff" transform="matrix(1,0,0,1,0,-0.8992271423339844)" style="transform:matrix(1, 0, 0, 1, 0, -0.899227);animation-play-state:paused" ></path>
<path d="M340.5 136.49377312991157 L340.5 157.51679566052852 A15.5 15.5 0 0 0 372.5 157.51679566052852 L372.5 136.49377312991157 A15.5 15.5 0 0 0 340.5 136.49377312991157" fill="#fff" transform="matrix(1,0,0,1,0,0)" opacity="0.504202" style="transform:matrix(1, 0, 0, 1, 0, 0);opacity:0.504202;animation-play-state:paused" ></path>
<path d="M371.5 700 L371.5 175.46484661933624 A15.5 15.5 0 0 0 403.5 175.46484661933624 L403.5 700" fill="#fff" transform="matrix(1,0,0,1,0,20.7995548248291)" style="transform:matrix(1, 0, 0, 1, 0, 20.7996);animation-play-state:paused" ></path>
<path d="M371.5 459.20817336783153 L371.5 487.41634673566307 A15.5 15.5 0 0 0 403.5 487.41634673566307 L403.5 459.20817336783153 A15.5 15.5 0 0 0 371.5 459.20817336783153" fill="#000" transform="matrix(1,0,0,1,0,-168.7436065673828)" opacity="0.840336" style="transform:matrix(1, 0, 0, 1, 0, -168.744);opacity:0.840336;animation-play-state:paused" ></path>
<path d="M402.5 700 L402.5 125.12947040642462 A15.5 15.5 0 0 1 434.5 125.12947040642462 L434.5 700" fill="#fff" transform="matrix(1,0,0,1,0,-16.319080352783203)" style="transform:matrix(1, 0, 0, 1, 0, -16.3191);animation-play-state:paused" ></path>
<path d="M402.5 156.12947040642462 L402.5 189.0579456535497 A15.5 15.5 0 0 0 434.5 189.0579456535497 L434.5 156.12947040642462 A15.5 15.5 0 0 0 402.5 156.12947040642462" fill="#fff" transform="matrix(1,0,0,1,0,0)" opacity="1" style="transform:matrix(1, 0, 0, 1, 0, 0);animation-play-state:paused" ></path>
<path d="M433.5 700 L433.5 155.411702240407 A15.5 15.5 0 0 0 465.5 155.411702240407 L465.5 700" fill="#fff" transform="matrix(1,0,0,1,0,27.61183738708496)" style="transform:matrix(1, 0, 0, 1, 0, 27.6118);animation-play-state:paused" ></path>
<path d="M433.5 455.36092075356834 L433.5 479.7218415071367 A15.5 15.5 0 0 0 465.5 479.7218415071367 L465.5 455.36092075356834 A15.5 15.5 0 0 0 433.5 455.36092075356834" fill="#000" transform="matrix(1,0,0,1,0,-204.71920776367188)" opacity="0.756302" style="transform:matrix(1, 0, 0, 1, 0, -204.719);opacity:0.756302;animation-play-state:paused" ></path>
<path d="M464.5 700 L464.5 148.41041341491075 A15.5 15.5 0 0 1 496.5 148.41041341491075 L496.5 700" fill="#fff" transform="matrix(1,0,0,1,0,-31.95941925048828)" style="transform:matrix(1, 0, 0, 1, 0, -31.9594);animation-play-state:paused" ></path>
<path d="M464.5 179.41041341491075 L464.5 192.57345910528394 A15.5 15.5 0 0 0 496.5 192.57345910528394 L496.5 179.41041341491075 A15.5 15.5 0 0 0 464.5 179.41041341491075" fill="#fff" transform="matrix(1,0,0,1,0,0)" opacity="0.504201" style="transform:matrix(1, 0, 0, 1, 0, 0);opacity:0.504201;animation-play-state:paused" ></path>
<path d="M495.5 700 L495.5 151.36122532932959 A15.5 15.5 0 0 0 527.5 151.36122532932959 L527.5 700" fill="#fff" transform="matrix(1,0,0,1,0,0.7607231140136719)" style="transform:matrix(1, 0, 0, 1, 0, 0.760723);animation-play-state:paused" ></path>
<path d="M495.5 463.49504157032766 L495.5 495.9900831406553 A15.5 15.5 0 0 0 527.5 495.9900831406553 L527.5 463.49504157032766 A15.5 15.5 0 0 0 495.5 463.49504157032766" fill="#000" transform="matrix(1,0,0,1,0,-289.485595703125)" opacity="0.0840336" style="transform:matrix(1, 0, 0, 1, 0, -289.486);opacity:0.0840336;animation-play-state:paused" ></path>
<path d="M526.5 700 L526.5 97.6791161421491 A15.5 15.5 0 0 1 558.5 97.6791161421491 L558.5 700" fill="#fff" transform="matrix(1,0,0,1,0,-8.150115998750707e-12)" style="transform:matrix(1, 0, 0, 1, 0, -8.15012e-12);animation-play-state:paused" ></path>
<path d="M526.5 128.6791161421491 L526.5 145.8842141782822 A15.5 15.5 0 0 0 558.5 145.8842141782822 L558.5 128.6791161421491 A15.5 15.5 0 0 0 526.5 128.6791161421491" fill="#fff" transform="matrix(1,0,0,1,0,0)" opacity="1" style="transform:matrix(1, 0, 0, 1, 0, 0);animation-play-state:paused" ></path>
<path d="M557.5 700 L557.5 154.3458015182265 A15.5 15.5 0 0 0 589.5 154.3458015182265 L589.5 700" fill="#fff" transform="matrix(1,0,0,1,0,3.743993043899536)" style="transform:matrix(1, 0, 0, 1, 0, 3.74399);animation-play-state:paused" ></path>
<path d="M557.5 443.619573836107 L557.5 456.239147672214 A15.5 15.5 0 0 0 589.5 456.239147672214 L589.5 443.619573836107 A15.5 15.5 0 0 0 557.5 443.619573836107" fill="#000" transform="matrix(1,0,0,1,0,-57.756370544433594)" opacity="1" style="transform:matrix(1, 0, 0, 1, 0, -57.7564);animation-play-state:paused" ></path>
<path d="M588.5 700 L588.5 127.35758189900031 A15.5 15.5 0 0 1 620.5 127.35758189900031 L620.5 700" fill="#fff" transform="matrix(1,0,0,1,0,-32.51580810546875)" style="transform:matrix(1, 0, 0, 1, 0, -32.5158);animation-play-state:paused" ></path>
<path d="M588.5 158.3575818990003 L588.5 196.2038815350175 A15.5 15.5 0 0 0 620.5 196.2038815350175 L620.5 158.3575818990003 A15.5 15.5 0 0 0 588.5 158.3575818990003" fill="#fff" transform="matrix(1,0,0,1,0,0)" opacity="0.92437" style="transform:matrix(1, 0, 0, 1, 0, 0);opacity:0.92437;animation-play-state:paused" ></path>
<path d="M619.5 700 L619.5 182.9275466261387 A15.5 15.5 0 0 0 651.5 182.9275466261387 L651.5 700" fill="#fff" transform="matrix(1,0,0,1,0,40.598628997802734)" style="transform:matrix(1, 0, 0, 1, 0, 40.5986);animation-play-state:paused" ></path>
<path d="M619.5 448.45852551840875 L619.5 465.9170510368175 A15.5 15.5 0 0 0 651.5 465.9170510368175 L651.5 448.45852551840875 A15.5 15.5 0 0 0 619.5 448.45852551840875" fill="#000" transform="matrix(1,0,0,1,0,-150.75018310546875)" opacity="0.92437" style="transform:matrix(1, 0, 0, 1, 0, -150.75);opacity:0.92437;animation-play-state:paused" ></path>
<path d="M650.5 700 L650.5 163.7007669796187 A15.5 15.5 0 0 1 682.5 163.7007669796187 L682.5 700" fill="#fff" transform="matrix(1,0,0,1,0,-27.245136260986328)" style="transform:matrix(1, 0, 0, 1, 0, -27.2451);animation-play-state:paused" ></path>
<path d="M650.5 194.70076697961866 L650.5 231.0375495623175 A15.5 15.5 0 0 0 682.5 231.0375495623175 L682.5 194.70076697961866 A15.5 15.5 0 0 0 650.5 194.70076697961866" fill="#fff" transform="matrix(1,0,0,1,0,0)" opacity="1" style="transform:matrix(1, 0, 0, 1, 0, 0);animation-play-state:paused" ></path>
<path d="M681.5 700 L681.5 172.55743573395907 A15.5 15.5 0 0 0 713.5 172.55743573395907 L713.5 700" fill="#fff" transform="matrix(1,0,0,1,0,2.7468414306640625)" style="transform:matrix(1, 0, 0, 1, 0, 2.74684);animation-play-state:paused" ></path>
<path d="M681.5 458.77801265287627 L681.5 486.55602530575254 A15.5 15.5 0 0 0 713.5 486.55602530575254 L713.5 458.77801265287627 A15.5 15.5 0 0 0 681.5 458.77801265287627" fill="#000" transform="matrix(1,0,0,1,0,-226.49038696289062)" opacity="0.588235" style="transform:matrix(1, 0, 0, 1, 0, -226.49);opacity:0.588235;animation-play-state:paused" ></path>
<path d="M712.5 700 L712.5 150.18301604844294 A15.5 15.5 0 0 1 744.5 150.18301604844294 L744.5 700" fill="#fff" transform="matrix(1,0,0,1,0,-32.67274475097656)" style="transform:matrix(1, 0, 0, 1, 0, -32.6727);animation-play-state:paused" ></path>
<path d="M712.5 181.18301604844294 L712.5 198.4163822365672 A15.5 15.5 0 0 0 744.5 198.4163822365672 L744.5 181.18301604844294 A15.5 15.5 0 0 0 712.5 181.18301604844294" fill="#fff" transform="matrix(1,0,0,1,0,0)" opacity="0.92437" style="transform:matrix(1, 0, 0, 1, 0, 0);opacity:0.92437;animation-play-state:paused" ></path>
<path d="M743.5 700 L743.5 183.33739218618348 A15.5 15.5 0 0 0 775.5 183.33739218618348 L775.5 700" fill="#fff" transform="matrix(1,0,0,1,0,7.2614288330078125)" style="transform:matrix(1, 0, 0, 1, 0, 7.26143);animation-play-state:paused" ></path>
<path d="M743.5 455.5912955116962 L743.5 480.18259102339243 A15.5 15.5 0 0 0 775.5 480.18259102339243 L775.5 455.5912955116962 A15.5 15.5 0 0 0 743.5 455.5912955116962" fill="#000" transform="matrix(1,0,0,1,0,-91.17024230957031)" opacity="1" style="transform:matrix(1, 0, 0, 1, 0, -91.1702);animation-play-state:paused" ></path>
<path d="M774.5 700 L774.5 138.4409357472112 A15.5 15.5 0 0 1 806.5 138.4409357472112 L806.5 700" fill="#fff" transform="matrix(1,0,0,1,0,-46.13216018676758)" style="transform:matrix(1, 0, 0, 1, 0, -46.1322);animation-play-state:paused" ></path>
<path d="M774.5 169.4409357472112 L774.5 195.425859222871 A15.5 15.5 0 0 0 806.5 195.425859222871 L806.5 169.4409357472112 A15.5 15.5 0 0 0 774.5 169.4409357472112" fill="#fff" transform="matrix(1,0,0,1,0,0)" opacity="0.840336" style="transform:matrix(1, 0, 0, 1, 0, 0);opacity:0.840336;animation-play-state:paused" ></path>
<path d="M805.5 700 L805.5 179.33350982694006 A15.5 15.5 0 0 0 837.5 179.33350982694006 L837.5 700" fill="#fff" transform="matrix(1,0,0,1,0,44.06163024902344)" style="transform:matrix(1, 0, 0, 1, 0, 44.0616);animation-play-state:paused" ></path>
<path d="M805.5 464.2278007419702 L805.5 497.4556014839404 A15.5 15.5 0 0 0 837.5 497.4556014839404 L837.5 464.2278007419702 A15.5 15.5 0 0 0 805.5 464.2278007419702" fill="#000" transform="matrix(1,0,0,1,0,-292.6001281738281)" opacity="0.588235" style="transform:matrix(1, 0, 0, 1, 0, -292.6);opacity:0.588235;animation-play-state:paused" ></path>
<path d="M836.5 700 L836.5 157.3215598216891 A15.5 15.5 0 0 1 868.5 157.3215598216891 L868.5 700" fill="#fff" transform="matrix(1,0,0,1,0,-8.033851623535156)" style="transform:matrix(1, 0, 0, 1, 0, -8.03385);animation-play-state:paused" ></path>
<path d="M836.5 188.3215598216891 L836.5 215.67573661017502 A15.5 15.5 0 0 0 868.5 215.67573661017502 L868.5 188.3215598216891 A15.5 15.5 0 0 0 836.5 188.3215598216891" fill="#fff" transform="matrix(1,0,0,1,0,0)" opacity="1" style="transform:matrix(1, 0, 0, 1, 0, 0);animation-play-state:paused" ></path>
<path d="M867.5 700 L867.5 203.98636107775658 A15.5 15.5 0 0 0 899.5 203.98636107775658 L899.5 700" fill="#fff" transform="matrix(1,0,0,1,0,0.740875244140625)" style="transform:matrix(1, 0, 0, 1, 0, 0.740875);animation-play-state:paused" ></path>
<path d="M867.5 449.43891834598224 L867.5 467.8778366919645 A15.5 15.5 0 0 0 899.5 467.8778366919645 L899.5 449.43891834598224 A15.5 15.5 0 0 0 867.5 449.43891834598224" fill="#000" transform="matrix(1,0,0,1,0,-272.18255615234375)" opacity="0.504202" style="transform:matrix(1, 0, 0, 1, 0, -272.183);opacity:0.504202;animation-play-state:paused" ></path>
<path d="M898.5 700 L898.5 148.92267873027222 A15.5 15.5 0 0 1 930.5 148.92267873027222 L930.5 700" fill="#fff" transform="matrix(1,0,0,1,0,-32.83735656738281)" style="transform:matrix(1, 0, 0, 1, 0, -32.8374);animation-play-state:paused" ></path>
<path d="M898.5 179.92267873027222 L898.5 208.14333597569427 A15.5 15.5 0 0 0 930.5 208.14333597569427 L930.5 179.92267873027222 A15.5 15.5 0 0 0 898.5 179.92267873027222" fill="#fff" transform="matrix(1,0,0,1,0,0)" opacity="0.840336" style="transform:matrix(1, 0, 0, 1, 0, 0);opacity:0.840336;animation-play-state:paused" ></path>
<path d="M929.5 700 L929.5 184.54730343577523 A15.5 15.5 0 0 0 961.5 184.54730343577523 L961.5 700" fill="#fff" transform="matrix(1,0,0,1,0,21.971086502075195)" style="transform:matrix(1, 0, 0, 1, 0, 21.9711);animation-play-state:paused" ></path>
<path d="M929.5 463.6225638035664 L929.5 496.24512760713276 A15.5 15.5 0 0 0 961.5 496.24512760713276 L961.5 463.6225638035664 A15.5 15.5 0 0 0 929.5 463.6225638035664" fill="#000" transform="matrix(1,0,0,1,0,-117.53662109375)" opacity="1" style="transform:matrix(1, 0, 0, 1, 0, -117.537);animation-play-state:paused" ></path>
<path d="M960.5 700 L960.5 142.66371159273132 A15.5 15.5 0 0 1 992.5 142.66371159273132 L992.5 700" fill="#fff" transform="matrix(1,0,0,1,0,-39.28809356689453)" style="transform:matrix(1, 0, 0, 1, 0, -39.2881);animation-play-state:paused" ></path>
<path d="M960.5 173.66371159273132 L960.5 212.34451904134173 A15.5 15.5 0 0 0 992.5 212.34451904134173 L992.5 173.66371159273132 A15.5 15.5 0 0 0 960.5 173.66371159273132" fill="#fff" transform="matrix(1,0,0,1,0,0)" opacity="0.252101" style="transform:matrix(1, 0, 0, 1, 0, 0);opacity:0.252101;animation-play-state:paused" ></path>
<path d="M991.5 700 L991.5 195.63278623645576 A15.5 15.5 0 0 0 1023.5 195.63278623645576 L1023.5 700" fill="#fff" transform="matrix(1,0,0,1,0,18.14487648010254)" style="transform:matrix(1, 0, 0, 1, 0, 18.1449);animation-play-state:paused" ></path>
<path d="M991.5 457.064811803893 L991.5 483.129623607786 A15.5 15.5 0 0 0 1023.5 483.129623607786 L1023.5 457.064811803893 A15.5 15.5 0 0 0 991.5 457.064811803893" fill="#000" transform="matrix(1,0,0,1,0,-237.4682159423828)" opacity="0.336134" style="transform:matrix(1, 0, 0, 1, 0, -237.468);opacity:0.336134;animation-play-state:paused" ></path>
<path d="M1022.5 700 L1022.5 166.27722400961625 A15.5 15.5 0 0 1 1054.5 166.27722400961625 L1054.5 700" fill="#fff" transform="matrix(1,0,0,1,0,-7.309831619262695)" style="transform:matrix(1, 0, 0, 1, 0, -7.30983);animation-play-state:paused" ></path>
<path d="M1022.5 197.27722400961625 L1022.5 226.79661471007486 A15.5 15.5 0 0 0 1054.5 226.79661471007486 L1054.5 197.27722400961625 A15.5 15.5 0 0 0 1022.5 197.27722400961625" fill="#fff" transform="matrix(1,0,0,1,0,0)" opacity="0.0840335" style="transform:matrix(1, 0, 0, 1, 0, 0);opacity:0.0840335;animation-play-state:paused" ></path>
<path d="M1053.5 700 L1053.5 201.8320174981795 A15.5 15.5 0 0 0 1085.5 201.8320174981795 L1085.5 700" fill="#fff" transform="matrix(1,0,0,1,0,6.888048074624176e-13)" style="transform:matrix(1, 0, 0, 1, 0, 6.88805e-13);animation-play-state:paused" ></path>
<path d="M1053.5 455.59716953923845 L1053.5 480.1943390784769 A15.5 15.5 0 0 0 1085.5 480.1943390784769 L1085.5 455.59716953923845 A15.5 15.5 0 0 0 1053.5 455.59716953923845" fill="#000" transform="matrix(1,0,0,1,0,-0.0002442607656121254)" opacity="1" style="transform:matrix(1, 0, 0, 1, 0, -0.000244261);animation-play-state:paused" ></path>
<path d="M1084.5 700 L1084.5 196.89192553778716 A15.5 15.5 0 0 1 1116.5 196.89192553778716 L1116.5 700" fill="#fff" transform="matrix(1,0,0,1,0,-6.600742340087891)" style="transform:matrix(1, 0, 0, 1, 0, -6.60074);animation-play-state:paused" ></path>
<path d="M1084.5 227.89192553778716 L1084.5 252.51605472747272 A15.5 15.5 0 0 0 1116.5 252.51605472747272 L1116.5 227.89192553778716 A15.5 15.5 0 0 0 1084.5 227.89192553778716" fill="#fff" transform="matrix(1,0,0,1,0,0)" opacity="1" style="transform:matrix(1, 0, 0, 1, 0, 0);animation-play-state:paused" ></path>
<path d="M1115.5 700 L1115.5 236.4160546186532 A15.5 15.5 0 0 0 1147.5 236.4160546186532 L1147.5 700" fill="#fff" transform="matrix(1,0,0,1,0,40.05836486816406)" style="transform:matrix(1, 0, 0, 1, 0, 40.0584);animation-play-state:paused" ></path>
<path d="M1115.5 456.26877462200304 L1115.5 481.5375492440061 A15.5 15.5 0 0 0 1147.5 481.5375492440061 L1147.5 456.26877462200304 A15.5 15.5 0 0 0 1115.5 456.26877462200304" fill="#000" transform="matrix(1,0,0,1,0,-81.18435668945312)" opacity="1" style="transform:matrix(1, 0, 0, 1, 0, -81.1844);animation-play-state:paused" ></path>
<path d="M1146.5 700 L1146.5 169.1184666115546 A15.5 15.5 0 0 1 1178.5 169.1184666115546 L1178.5 700" fill="#fff" transform="matrix(1,0,0,1,0,-46.67185974121094)" style="transform:matrix(1, 0, 0, 1, 0, -46.6719);animation-play-state:paused" ></path>
<path d="M1146.5 200.1184666115546 L1146.5 215.48469214716485 A15.5 15.5 0 0 0 1178.5 215.48469214716485 L1178.5 200.1184666115546 A15.5 15.5 0 0 0 1146.5 200.1184666115546" fill="#fff" transform="matrix(1,0,0,1,0,0)" opacity="0.92437" style="transform:matrix(1, 0, 0, 1, 0, 0);opacity:0.92437;animation-play-state:paused" ></path>
<path d="M1177.5 700 L1177.5 234.49727051141537 A15.5 15.5 0 0 0 1209.5 234.49727051141537 L1209.5 700" fill="#fff" transform="matrix(1,0,0,1,0,32.76885986328125)" style="transform:matrix(1, 0, 0, 1, 0, 32.7689);animation-play-state:paused" ></path>
<path d="M1177.5 449.0723225486877 L1177.5 467.14464509737536 A15.5 15.5 0 0 0 1209.5 467.14464509737536 L1209.5 449.0723225486877 A15.5 15.5 0 0 0 1177.5 449.0723225486877" fill="#000" transform="matrix(1,0,0,1,0,-260.3668212890625)" opacity="0.420167" style="transform:matrix(1, 0, 0, 1, 0, -260.367);opacity:0.420167;animation-play-state:paused" ></path>
<path d="M1208.5 700 L1208.5 175.35483228450164 A15.5 15.5 0 0 1 1240.5 175.35483228450164 L1240.5 700" fill="#fff" transform="matrix(1,0,0,1,0,-3.865203857421875)" style="transform:matrix(1, 0, 0, 1, 0, -3.8652);animation-play-state:paused" ></path>
<path d="M1208.5 206.35483228450164 L1208.5 245.62777880731997 A15.5 15.5 0 0 0 1240.5 245.62777880731997 L1240.5 206.35483228450164 A15.5 15.5 0 0 0 1208.5 206.35483228450164" fill="#fff" transform="matrix(1,0,0,1,0,0)" opacity="0.588235" style="transform:matrix(1, 0, 0, 1, 0, 0);opacity:0.588235;animation-play-state:paused" ></path>
<path d="M1239.5 700 L1239.5 238.53933923983146 A15.5 15.5 0 0 0 1271.5 238.53933923983146 L1271.5 700" fill="#fff" transform="matrix(1,0,0,1,0,0.7201145887374878)" style="transform:matrix(1, 0, 0, 1, 0, 0.720115);animation-play-state:paused" ></path>
<path d="M1239.5 447.57095739750525 L1239.5 464.1419147950105 A15.5 15.5 0 0 0 1271.5 464.1419147950105 L1271.5 447.57095739750525 A15.5 15.5 0 0 0 1239.5 447.57095739750525" fill="#000" transform="matrix(1,0,0,1,0,-26.722881317138672)" opacity="1" style="transform:matrix(1, 0, 0, 1, 0, -26.7229);animation-play-state:paused" ></path>
<path d="M1270.5 700 L1270.5 158.335564213101 A15.5 15.5 0 0 1 1302.5 158.335564213101 L1302.5 700" fill="#fff" transform="matrix(1,0,0,1,0,-5.86290168762207)" style="transform:matrix(1, 0, 0, 1, 0, -5.8629);animation-play-state:paused" ></path>
<path d="M1270.5 189.335564213101 L1270.5 203.31613535905933 A15.5 15.5 0 0 0 1302.5 203.31613535905933 L1302.5 189.335564213101 A15.5 15.5 0 0 0 1270.5 189.335564213101" fill="#fff" transform="matrix(1,0,0,1,0,0)" opacity="0.840336" style="transform:matrix(1, 0, 0, 1, 0, 0);opacity:0.840336;animation-play-state:paused" ></path>
<path d="M1301.5 700 L1301.5 198.74770363362572 A15.5 15.5 0 0 0 1333.5 198.74770363362572 L1333.5 700" fill="#fff" transform="matrix(1,0,0,1,0,29.672019958496094)" style="transform:matrix(1, 0, 0, 1, 0, 29.672);animation-play-state:paused" ></path>
<path d="M1301.5 448.49835110347686 L1301.5 465.9967022069537 A15.5 15.5 0 0 0 1333.5 465.9967022069537 L1333.5 448.49835110347686 A15.5 15.5 0 0 0 1301.5 448.49835110347686" fill="#000" transform="matrix(1,0,0,1,0,-230.8053436279297)" opacity="0.756302" style="transform:matrix(1, 0, 0, 1, 0, -230.805);opacity:0.756302;animation-play-state:paused" ></path>
<path d="M1332.5 700 L1332.5 172.18861745067326 A15.5 15.5 0 0 1 1364.5 172.18861745067326 L1364.5 700" fill="#fff" transform="matrix(1,0,0,1,0,-25.65444564819336)" style="transform:matrix(1, 0, 0, 1, 0, -25.6544);animation-play-state:paused" ></path>
<path d="M1332.5 203.18861745067326 L1332.5 240.6387434422854 A15.5 15.5 0 0 0 1364.5 240.6387434422854 L1364.5 203.18861745067326 A15.5 15.5 0 0 0 1332.5 203.18861745067326" fill="#fff" transform="matrix(1,0,0,1,0,0)" opacity="0.588234" style="transform:matrix(1, 0, 0, 1, 0, 0);opacity:0.588234;animation-play-state:paused" ></path>
<path d="M1363.5 700 L1363.5 213.98707908390458 A15.5 15.5 0 0 0 1395.5 213.98707908390458 L1395.5 700" fill="#fff" transform="matrix(1,0,0,1,0,12.566985130310059)" style="transform:matrix(1, 0, 0, 1, 0, 12.567);animation-play-state:paused" ></path>
<path d="M1363.5 450.673034216105 L1363.5 470.34606843221 A15.5 15.5 0 0 0 1395.5 470.34606843221 L1395.5 450.673034216105 A15.5 15.5 0 0 0 1363.5 450.673034216105" fill="#000" transform="matrix(1,0,0,1,0,-65.23104095458984)" opacity="1" style="transform:matrix(1, 0, 0, 1, 0, -65.231);animation-play-state:paused" ></path>
<path d="M1394.5 700 L1394.5 162.85060923433898 A15.5 15.5 0 0 1 1426.5 162.85060923433898 L1426.5 700" fill="#fff" transform="matrix(1,0,0,1,0,-0.5463504791259766)" style="transform:matrix(1, 0, 0, 1, 0, -0.54635);animation-play-state:paused" ></path>
<path d="M1394.5 193.85060923433895 L1394.5 219.08888967831058 A15.5 15.5 0 0 0 1426.5 219.08888967831058 L1426.5 193.85060923433895 A15.5 15.5 0 0 0 1394.5 193.85060923433895" fill="#fff" transform="matrix(1,0,0,1,0,0)" opacity="0.504202" style="transform:matrix(1, 0, 0, 1, 0, 0);opacity:0.504202;animation-play-state:paused" ></path>
<path d="M1425.5 700 L1425.5 206.4381770713305 A15.5 15.5 0 0 0 1457.5 206.4381770713305 L1457.5 700" fill="#fff" transform="matrix(1,0,0,1,0,20.04953956604004)" style="transform:matrix(1, 0, 0, 1, 0, 20.0495);animation-play-state:paused" ></path>
<path d="M1425.5 466.22287646026507 L1425.5 501.44575292053014 A15.5 15.5 0 0 0 1457.5 501.44575292053014 L1457.5 466.22287646026507 A15.5 15.5 0 0 0 1425.5 466.22287646026507" fill="#000" transform="matrix(1,0,0,1,0,-45.70802307128906)" opacity="1" style="transform:matrix(1, 0, 0, 1, 0, -45.708);animation-play-state:paused" ></path>
<path d="M1456.5 700 L1456.5 168.44942559746454 A15.5 15.5 0 0 1 1488.5 168.44942559746454 L1488.5 700" fill="#fff" transform="matrix(1,0,0,1,0,-11.770647048950195)" style="transform:matrix(1, 0, 0, 1, 0, -11.7706);animation-play-state:paused" ></path>
<path d="M1456.5 199.44942559746454 L1456.5 238.0977436979046 A15.5 15.5 0 0 0 1488.5 238.0977436979046 L1488.5 199.44942559746454 A15.5 15.5 0 0 0 1456.5 199.44942559746454" fill="#fff" transform="matrix(1,0,0,1,0,0)" opacity="0.336134" style="transform:matrix(1, 0, 0, 1, 0, 0);opacity:0.336134;animation-play-state:paused" ></path>
<path d="M1487.5 700 L1487.5 184.86582486469766 A15.5 15.5 0 0 0 1519.5 184.86582486469766 L1519.5 700" fill="#fff" transform="matrix(1,0,0,1,0,45.09144592285156)" style="transform:matrix(1, 0, 0, 1, 0, 45.0914);animation-play-state:paused" ></path>
<path d="M1487.5 468.71996565614114 L1487.5 506.4399313122823 A15.5 15.5 0 0 0 1519.5 506.4399313122823 L1519.5 468.71996565614114 A15.5 15.5 0 0 0 1487.5 468.71996565614114" fill="#000" transform="matrix(1,0,0,1,0,-241.4392852783203)" opacity="0.504202" style="transform:matrix(1, 0, 0, 1, 0, -241.439);opacity:0.504202;animation-play-state:paused" ></path>
<path d="M1518.5 700 L1518.5 170.4026508829278 A15.5 15.5 0 0 1 1550.5 170.4026508829278 L1550.5 700" fill="#fff" transform="matrix(1,0,0,1,0,-3.7001419067382812)" style="transform:matrix(1, 0, 0, 1, 0, -3.70014);animation-play-state:paused" ></path>
<path d="M1518.5 201.4026508829278 L1518.5 230.63471972109608 A15.5 15.5 0 0 0 1550.5 230.63471972109608 L1550.5 201.4026508829278 A15.5 15.5 0 0 0 1518.5 201.4026508829278" fill="#fff" transform="matrix(1,0,0,1,0,0)" opacity="0.336134" style="transform:matrix(1, 0, 0, 1, 0, 0);opacity:0.336134;animation-play-state:paused" ></path>
<path d="M1549.5 700 L1549.5 187.02352506375155 A15.5 15.5 0 0 0 1581.5 187.02352506375155 L1581.5 700" fill="#fff" transform="matrix(1,0,0,1,0,3.6579551696777344)" style="transform:matrix(1, 0, 0, 1, 0, 3.65796);animation-play-state:paused" ></path>
<path d="M1549.5 453.3665447328668 L1549.5 475.73308946573366 A15.5 15.5 0 0 0 1581.5 475.73308946573366 L1581.5 453.3665447328668 A15.5 15.5 0 0 0 1549.5 453.3665447328668" fill="#000" transform="matrix(1,0,0,1,0,-247.65615844726562)" opacity="0.2521" style="transform:matrix(1, 0, 0, 1, 0, -247.656);opacity:0.2521;animation-play-state:paused" ></path></g></mask></defs>


<rect x="0" y="0" width="1540" height="400" fill="url(#ldbk-photon-rqvknup33n-lg)" mask="url(#ldbk-photon-rqvknup33n-mask)" style="animation-play-state:paused" ></rect></g></svg>